<?xml version="1.0" standalone="no"?>
<!DOCTYPE svg PUBLIC "-//W3C//DTD SVG 20010904//EN"
 "http://www.w3.org/TR/2001/REC-SVG-20010904/DTD/svg10.dtd">
<svg version="1.0" xmlns="http://www.w3.org/2000/svg"
 width="256.000000pt" height="256.000000pt" viewBox="0 0 256.000000 256.000000"
 preserveAspectRatio="xMidYMid meet">

<g transform="translate(0.000000,256.000000) scale(0.100000,-0.100000)"
fill="#000000" stroke="none">
<path d="M570 2125 c-7 -8 -9 -24 -5 -37 8 -24 65 -112 122 -187 18 -24 33
-47 33 -50 0 -4 -35 -24 -77 -45 -85 -42 -244 -142 -338 -215 -104 -79 -276
-243 -293 -278 -14 -30 -14 -36 0 -66 17 -35 189 -199 293 -278 100 -77 245
-168 345 -219 349 -175 652 -208 997 -108 l71 20 110 -110 c60 -60 119 -113
131 -117 23 -7 51 9 51 29 0 19 -39 86 -94 161 -29 38 -55 75 -59 82 -5 8 17
25 70 52 213 107 562 381 618 485 19 36 19 36 0 72 -10 20 -55 70 -100 112
-287 270 -618 457 -925 522 -190 40 -448 26 -621 -35 l-44 -16 -80 85 c-87 93
-160 156 -180 156 -7 0 -18 -7 -25 -15z m885 -309 c283 -50 605 -224 850 -459
l80 -77 -80 -77 c-133 -127 -304 -247 -482 -337 -29 -14 -56 -26 -61 -26 -5 0
-37 36 -70 80 l-62 79 25 36 c34 51 61 129 70 200 6 53 4 64 -15 88 -16 19
-30 27 -54 27 -45 0 -63 -24 -75 -96 -9 -58 -35 -134 -45 -134 -2 0 -30 30
-60 67 -43 52 -56 75 -56 101 0 64 -59 132 -116 132 -14 0 -43 24 -83 69 l-62
69 37 12 c22 8 66 11 110 8 63 -4 82 -10 141 -46 38 -23 77 -42 87 -42 25 0
66 45 66 72 -1 33 -27 62 -93 102 -116 69 -264 81 -389 32 l-57 -23 -23 26
c-13 14 -34 38 -47 53 l-24 27 29 12 c96 37 321 49 459 25z m-577 -165 l61
-79 -20 -26 c-33 -42 -67 -127 -79 -198 -59 -340 301 -618 619 -477 24 10 47
19 51 19 4 0 29 -25 54 -54 l47 -55 -38 -11 c-133 -38 -322 -51 -452 -29 -290
48 -666 253 -896 488 l-49 51 49 51 c65 66 190 167 290 234 72 48 281 164 296
165 3 0 33 -36 67 -79z m211 -262 c45 -53 51 -66 51 -105 0 -81 55 -144 126
-144 26 0 41 -11 89 -65 32 -36 56 -67 54 -69 -16 -13 -82 -26 -130 -26 -214
0 -355 210 -278 415 11 30 24 55 29 55 4 0 31 -27 59 -61z"/>
</g>
</svg>
